<svg width="36" height="56" viewBox="0 0 36 56" fill="none" xmlns="http://www.w3.org/2000/svg">
<path fill-rule="evenodd" clip-rule="evenodd" d="M18 0C18.5304 0 19.039 0.2107 19.414 0.585749C19.789 0.960798 19.9997 1.46947 19.9997 1.99987V49.1689L32.582 36.5817C32.9574 36.2061 33.4667 35.9952 33.9978 35.9952C34.5288 35.9952 35.0381 36.2061 35.4136 36.5817C35.7891 36.9572 36 37.4665 36 37.9976C36 38.5286 35.7891 39.038 35.4136 39.4135L19.4158 55.4125C19.23 55.5987 19.0094 55.7465 18.7664 55.8473C18.5235 55.9481 18.263 56 18 56C17.737 56 17.4765 55.9481 17.2336 55.8473C16.9906 55.7465 16.77 55.5987 16.5842 55.4125L0.586444 39.4135C0.21095 39.038 -1.25115e-08 38.5286 0 37.9976C1.25115e-08 37.4665 0.21095 36.9572 0.586444 36.5817C0.961938 36.2061 1.47122 35.9952 2.00225 35.9952C2.53327 35.9952 3.04255 36.2061 3.41805 36.5817L16.0003 49.1689V1.99987C16.0003 1.46947 16.211 0.960798 16.586 0.585749C16.961 0.2107 17.4696 0 18 0Z" fill="#F8EDE1"/>
</svg>
